<mxfile host="Electron" agent="Mozilla/5.0 (Windows NT 10.0; Win64; x64) AppleWebKit/537.36 (KHTML, like Gecko) draw.io/28.0.6 Chrome/138.0.7204.100 Electron/37.2.3 Safari/537.36" version="28.0.6">
  <diagram name="Página-1" id="x4JUN-QiqnLflG_pkyVO">
    <mxGraphModel dx="1678" dy="1131" grid="1" gridSize="10" guides="1" tooltips="1" connect="1" arrows="1" fold="1" page="1" pageScale="1" pageWidth="1654" pageHeight="1169" math="0" shadow="0">
      <root>
        <mxCell id="0" />
        <mxCell id="1" parent="0" />
        <mxCell id="OnQnRQUOSkfBYbq7Mj6k-1" value="REVISTA EJERCITO" style="shape=umlFrame;whiteSpace=wrap;html=1;pointerEvents=0;recursiveResize=0;container=1;collapsible=0;width=160;" vertex="1" parent="1">
          <mxGeometry x="520" y="200" width="410" height="820" as="geometry" />
        </mxCell>
        <mxCell id="OnQnRQUOSkfBYbq7Mj6k-6" value="Asignación de roles" style="ellipse;html=1;whiteSpace=wrap;" vertex="1" parent="OnQnRQUOSkfBYbq7Mj6k-1">
          <mxGeometry x="90" y="50" width="100" height="50" as="geometry" />
        </mxCell>
        <mxCell id="OnQnRQUOSkfBYbq7Mj6k-7" value="Alta/baja/edición de usuarios" style="ellipse;html=1;whiteSpace=wrap;" vertex="1" parent="OnQnRQUOSkfBYbq7Mj6k-1">
          <mxGeometry x="240" y="80" width="100" height="50" as="geometry" />
        </mxCell>
        <mxCell id="OnQnRQUOSkfBYbq7Mj6k-16" value="Registrar/editar autor" style="ellipse;html=1;whiteSpace=wrap;" vertex="1" parent="OnQnRQUOSkfBYbq7Mj6k-1">
          <mxGeometry x="90" y="130" width="100" height="50" as="geometry" />
        </mxCell>
        <mxCell id="OnQnRQUOSkfBYbq7Mj6k-21" value="Alta de artículo/documentos" style="ellipse;html=1;whiteSpace=wrap;" vertex="1" parent="OnQnRQUOSkfBYbq7Mj6k-1">
          <mxGeometry x="230" y="180" width="130" height="50" as="geometry" />
        </mxCell>
        <mxCell id="OnQnRQUOSkfBYbq7Mj6k-26" value="Crear número de revista" style="ellipse;html=1;whiteSpace=wrap;" vertex="1" parent="OnQnRQUOSkfBYbq7Mj6k-1">
          <mxGeometry x="100" y="400" width="130" height="50" as="geometry" />
        </mxCell>
        <mxCell id="OnQnRQUOSkfBYbq7Mj6k-28" value="Asignar artículos a número de revista" style="ellipse;html=1;whiteSpace=wrap;" vertex="1" parent="OnQnRQUOSkfBYbq7Mj6k-1">
          <mxGeometry x="160" y="320" width="130" height="50" as="geometry" />
        </mxCell>
        <mxCell id="OnQnRQUOSkfBYbq7Mj6k-29" value="Cerrar número de revista" style="ellipse;html=1;whiteSpace=wrap;" vertex="1" parent="OnQnRQUOSkfBYbq7Mj6k-1">
          <mxGeometry x="270" y="480" width="130" height="50" as="geometry" />
        </mxCell>
        <mxCell id="OnQnRQUOSkfBYbq7Mj6k-40" value="Clasificar artículo" style="ellipse;html=1;whiteSpace=wrap;" vertex="1" parent="OnQnRQUOSkfBYbq7Mj6k-1">
          <mxGeometry x="270" y="380" width="130" height="50" as="geometry" />
        </mxCell>
        <mxCell id="OnQnRQUOSkfBYbq7Mj6k-43" value="Asignar consejeros a artículo" style="ellipse;html=1;whiteSpace=wrap;" vertex="1" parent="OnQnRQUOSkfBYbq7Mj6k-1">
          <mxGeometry x="160" y="260" width="130" height="50" as="geometry" />
        </mxCell>
        <mxCell id="OnQnRQUOSkfBYbq7Mj6k-45" value="Realizar consultas/búsquedas" style="ellipse;html=1;whiteSpace=wrap;" vertex="1" parent="OnQnRQUOSkfBYbq7Mj6k-1">
          <mxGeometry x="100" y="600" width="130" height="50" as="geometry" />
        </mxCell>
        <mxCell id="OnQnRQUOSkfBYbq7Mj6k-51" value="Imprimir etiquetas" style="ellipse;html=1;whiteSpace=wrap;" vertex="1" parent="OnQnRQUOSkfBYbq7Mj6k-1">
          <mxGeometry x="100" y="670" width="130" height="50" as="geometry" />
        </mxCell>
        <mxCell id="OnQnRQUOSkfBYbq7Mj6k-55" value="Gestionar suscripciones" style="ellipse;html=1;whiteSpace=wrap;" vertex="1" parent="OnQnRQUOSkfBYbq7Mj6k-1">
          <mxGeometry x="260" y="700" width="130" height="50" as="geometry" />
        </mxCell>
        <mxCell id="OnQnRQUOSkfBYbq7Mj6k-56" value="Gestionar suscriptores" style="ellipse;html=1;whiteSpace=wrap;" vertex="1" parent="OnQnRQUOSkfBYbq7Mj6k-1">
          <mxGeometry x="100" y="750" width="130" height="50" as="geometry" />
        </mxCell>
        <mxCell id="OnQnRQUOSkfBYbq7Mj6k-63" value="&amp;lt;&amp;lt;include&amp;gt;&amp;gt;" style="html=1;verticalAlign=bottom;labelBackgroundColor=none;endArrow=open;endFill=0;dashed=1;rounded=0;exitX=0;exitY=0;exitDx=0;exitDy=0;entryX=1;entryY=0.5;entryDx=0;entryDy=0;" edge="1" parent="OnQnRQUOSkfBYbq7Mj6k-1" source="OnQnRQUOSkfBYbq7Mj6k-7" target="OnQnRQUOSkfBYbq7Mj6k-6">
          <mxGeometry width="160" relative="1" as="geometry">
            <mxPoint x="30" y="410" as="sourcePoint" />
            <mxPoint x="190" y="410" as="targetPoint" />
          </mxGeometry>
        </mxCell>
        <mxCell id="OnQnRQUOSkfBYbq7Mj6k-64" value="&amp;lt;&amp;lt;extend&amp;gt;&amp;gt;" style="html=1;verticalAlign=bottom;labelBackgroundColor=none;endArrow=open;endFill=0;dashed=1;rounded=0;exitX=1;exitY=0.5;exitDx=0;exitDy=0;entryX=0.5;entryY=1;entryDx=0;entryDy=0;" edge="1" parent="OnQnRQUOSkfBYbq7Mj6k-1" source="OnQnRQUOSkfBYbq7Mj6k-51" target="OnQnRQUOSkfBYbq7Mj6k-29">
          <mxGeometry x="0.3419" y="-27" width="160" relative="1" as="geometry">
            <mxPoint x="30" y="710" as="sourcePoint" />
            <mxPoint x="190" y="710" as="targetPoint" />
            <Array as="points">
              <mxPoint x="280" y="610" />
            </Array>
            <mxPoint as="offset" />
          </mxGeometry>
        </mxCell>
        <mxCell id="OnQnRQUOSkfBYbq7Mj6k-65" value="&amp;lt;&amp;lt;include&amp;gt;&amp;gt;" style="html=1;verticalAlign=bottom;labelBackgroundColor=none;endArrow=open;endFill=0;dashed=1;rounded=0;exitX=0.5;exitY=1;exitDx=0;exitDy=0;entryX=0.5;entryY=0;entryDx=0;entryDy=0;" edge="1" parent="OnQnRQUOSkfBYbq7Mj6k-1" source="OnQnRQUOSkfBYbq7Mj6k-21" target="OnQnRQUOSkfBYbq7Mj6k-40">
          <mxGeometry width="160" relative="1" as="geometry">
            <mxPoint x="395" y="302" as="sourcePoint" />
            <mxPoint x="330" y="290" as="targetPoint" />
          </mxGeometry>
        </mxCell>
        <mxCell id="OnQnRQUOSkfBYbq7Mj6k-24" value="Registrar evaluciones de artículos" style="ellipse;html=1;whiteSpace=wrap;" vertex="1" parent="OnQnRQUOSkfBYbq7Mj6k-1">
          <mxGeometry x="100" y="510" width="130" height="50" as="geometry" />
        </mxCell>
        <mxCell id="OnQnRQUOSkfBYbq7Mj6k-66" value="&amp;lt;&amp;lt;include&amp;gt;&amp;gt;" style="html=1;verticalAlign=bottom;labelBackgroundColor=none;endArrow=open;endFill=0;dashed=1;rounded=0;exitX=0;exitY=1;exitDx=0;exitDy=0;entryX=0.5;entryY=0;entryDx=0;entryDy=0;" edge="1" parent="OnQnRQUOSkfBYbq7Mj6k-1" source="OnQnRQUOSkfBYbq7Mj6k-40" target="OnQnRQUOSkfBYbq7Mj6k-24">
          <mxGeometry x="-0.4356" y="28" width="160" relative="1" as="geometry">
            <mxPoint x="260" y="450" as="sourcePoint" />
            <mxPoint x="280" y="590" as="targetPoint" />
            <mxPoint as="offset" />
          </mxGeometry>
        </mxCell>
        <mxCell id="OnQnRQUOSkfBYbq7Mj6k-67" value="&amp;lt;&amp;lt;include&amp;gt;&amp;gt;" style="html=1;verticalAlign=bottom;labelBackgroundColor=none;endArrow=open;endFill=0;dashed=1;rounded=0;exitX=1;exitY=0.5;exitDx=0;exitDy=0;entryX=0.208;entryY=0.18;entryDx=0;entryDy=0;entryPerimeter=0;" edge="1" parent="OnQnRQUOSkfBYbq7Mj6k-1" source="OnQnRQUOSkfBYbq7Mj6k-16" target="OnQnRQUOSkfBYbq7Mj6k-21">
          <mxGeometry x="0.367" y="9" width="160" relative="1" as="geometry">
            <mxPoint x="450" y="280" as="sourcePoint" />
            <mxPoint x="490" y="430" as="targetPoint" />
            <mxPoint as="offset" />
          </mxGeometry>
        </mxCell>
        <mxCell id="OnQnRQUOSkfBYbq7Mj6k-2" value="Administrador" style="shape=umlActor;verticalLabelPosition=bottom;verticalAlign=top;html=1;" vertex="1" parent="1">
          <mxGeometry x="390" y="310" width="30" height="60" as="geometry" />
        </mxCell>
        <mxCell id="OnQnRQUOSkfBYbq7Mj6k-3" value="Redactor" style="shape=umlActor;verticalLabelPosition=bottom;verticalAlign=top;html=1;" vertex="1" parent="1">
          <mxGeometry x="390" y="510" width="30" height="60" as="geometry" />
        </mxCell>
        <mxCell id="OnQnRQUOSkfBYbq7Mj6k-4" value="Consejero" style="shape=umlActor;verticalLabelPosition=bottom;verticalAlign=top;html=1;" vertex="1" parent="1">
          <mxGeometry x="390" y="670" width="30" height="60" as="geometry" />
        </mxCell>
        <mxCell id="OnQnRQUOSkfBYbq7Mj6k-13" value="" style="endArrow=none;html=1;rounded=0;entryX=0;entryY=0.5;entryDx=0;entryDy=0;" edge="1" parent="1" target="OnQnRQUOSkfBYbq7Mj6k-6">
          <mxGeometry width="50" height="50" relative="1" as="geometry">
            <mxPoint x="440" y="330" as="sourcePoint" />
            <mxPoint x="590" y="350" as="targetPoint" />
          </mxGeometry>
        </mxCell>
        <mxCell id="OnQnRQUOSkfBYbq7Mj6k-14" value="" style="endArrow=none;html=1;rounded=0;entryX=0;entryY=0.5;entryDx=0;entryDy=0;" edge="1" parent="1" target="OnQnRQUOSkfBYbq7Mj6k-7">
          <mxGeometry width="50" height="50" relative="1" as="geometry">
            <mxPoint x="440" y="345" as="sourcePoint" />
            <mxPoint x="590" y="350" as="targetPoint" />
          </mxGeometry>
        </mxCell>
        <mxCell id="OnQnRQUOSkfBYbq7Mj6k-17" value="" style="endArrow=none;html=1;rounded=0;entryX=0;entryY=1;entryDx=0;entryDy=0;" edge="1" parent="1" target="OnQnRQUOSkfBYbq7Mj6k-16">
          <mxGeometry width="50" height="50" relative="1" as="geometry">
            <mxPoint x="440" y="520" as="sourcePoint" />
            <mxPoint x="710" y="430" as="targetPoint" />
          </mxGeometry>
        </mxCell>
        <mxCell id="OnQnRQUOSkfBYbq7Mj6k-19" value="Autor" style="shape=umlActor;verticalLabelPosition=bottom;verticalAlign=top;html=1;" vertex="1" parent="1">
          <mxGeometry x="390" y="410" width="30" height="60" as="geometry" />
        </mxCell>
        <mxCell id="OnQnRQUOSkfBYbq7Mj6k-20" value="" style="endArrow=none;html=1;rounded=0;entryX=0;entryY=0.5;entryDx=0;entryDy=0;" edge="1" parent="1" target="OnQnRQUOSkfBYbq7Mj6k-16">
          <mxGeometry width="50" height="50" relative="1" as="geometry">
            <mxPoint x="440" y="440" as="sourcePoint" />
            <mxPoint x="660" y="390" as="targetPoint" />
          </mxGeometry>
        </mxCell>
        <mxCell id="OnQnRQUOSkfBYbq7Mj6k-22" value="" style="endArrow=none;html=1;rounded=0;entryX=0;entryY=0.5;entryDx=0;entryDy=0;" edge="1" parent="1" target="OnQnRQUOSkfBYbq7Mj6k-21">
          <mxGeometry width="50" height="50" relative="1" as="geometry">
            <mxPoint x="440" y="450" as="sourcePoint" />
            <mxPoint x="730" y="510" as="targetPoint" />
          </mxGeometry>
        </mxCell>
        <mxCell id="OnQnRQUOSkfBYbq7Mj6k-23" value="" style="endArrow=none;html=1;rounded=0;entryX=0;entryY=1;entryDx=0;entryDy=0;" edge="1" parent="1" target="OnQnRQUOSkfBYbq7Mj6k-21">
          <mxGeometry width="50" height="50" relative="1" as="geometry">
            <mxPoint x="440" y="530" as="sourcePoint" />
            <mxPoint x="740" y="510" as="targetPoint" />
          </mxGeometry>
        </mxCell>
        <mxCell id="OnQnRQUOSkfBYbq7Mj6k-25" value="" style="endArrow=none;html=1;rounded=0;entryX=0;entryY=0.5;entryDx=0;entryDy=0;" edge="1" parent="1" target="OnQnRQUOSkfBYbq7Mj6k-24">
          <mxGeometry width="50" height="50" relative="1" as="geometry">
            <mxPoint x="440" y="700" as="sourcePoint" />
            <mxPoint x="734" y="600" as="targetPoint" />
          </mxGeometry>
        </mxCell>
        <mxCell id="OnQnRQUOSkfBYbq7Mj6k-27" value="" style="endArrow=none;html=1;rounded=0;entryX=0;entryY=0.5;entryDx=0;entryDy=0;" edge="1" parent="1" target="OnQnRQUOSkfBYbq7Mj6k-26">
          <mxGeometry width="50" height="50" relative="1" as="geometry">
            <mxPoint x="440" y="580" as="sourcePoint" />
            <mxPoint x="734" y="540" as="targetPoint" />
          </mxGeometry>
        </mxCell>
        <mxCell id="OnQnRQUOSkfBYbq7Mj6k-30" value="" style="endArrow=none;html=1;rounded=0;entryX=0;entryY=0.5;entryDx=0;entryDy=0;" edge="1" parent="1" target="OnQnRQUOSkfBYbq7Mj6k-28">
          <mxGeometry width="50" height="50" relative="1" as="geometry">
            <mxPoint x="440" y="550" as="sourcePoint" />
            <mxPoint x="590" y="530" as="targetPoint" />
          </mxGeometry>
        </mxCell>
        <mxCell id="OnQnRQUOSkfBYbq7Mj6k-41" value="" style="endArrow=none;html=1;rounded=0;entryX=0;entryY=0.5;entryDx=0;entryDy=0;" edge="1" parent="1" target="OnQnRQUOSkfBYbq7Mj6k-40">
          <mxGeometry width="50" height="50" relative="1" as="geometry">
            <mxPoint x="440" y="560" as="sourcePoint" />
            <mxPoint x="724" y="530" as="targetPoint" />
          </mxGeometry>
        </mxCell>
        <mxCell id="OnQnRQUOSkfBYbq7Mj6k-42" value="" style="endArrow=none;html=1;rounded=0;entryX=0.006;entryY=0.44;entryDx=0;entryDy=0;entryPerimeter=0;" edge="1" parent="1" target="OnQnRQUOSkfBYbq7Mj6k-29">
          <mxGeometry width="50" height="50" relative="1" as="geometry">
            <mxPoint x="440" y="590" as="sourcePoint" />
            <mxPoint x="625" y="715" as="targetPoint" />
          </mxGeometry>
        </mxCell>
        <mxCell id="OnQnRQUOSkfBYbq7Mj6k-44" value="" style="endArrow=none;html=1;rounded=0;entryX=0;entryY=0.5;entryDx=0;entryDy=0;" edge="1" parent="1" target="OnQnRQUOSkfBYbq7Mj6k-43">
          <mxGeometry width="50" height="50" relative="1" as="geometry">
            <mxPoint x="440" y="540" as="sourcePoint" />
            <mxPoint x="705" y="550" as="targetPoint" />
          </mxGeometry>
        </mxCell>
        <mxCell id="OnQnRQUOSkfBYbq7Mj6k-46" value="" style="endArrow=none;html=1;rounded=0;entryX=0;entryY=0;entryDx=0;entryDy=0;" edge="1" parent="1" target="OnQnRQUOSkfBYbq7Mj6k-45">
          <mxGeometry width="50" height="50" relative="1" as="geometry">
            <mxPoint x="440" y="600" as="sourcePoint" />
            <mxPoint x="994" y="640" as="targetPoint" />
          </mxGeometry>
        </mxCell>
        <mxCell id="OnQnRQUOSkfBYbq7Mj6k-48" value="Director" style="shape=umlActor;verticalLabelPosition=bottom;verticalAlign=top;html=1;" vertex="1" parent="1">
          <mxGeometry x="390" y="770" width="30" height="60" as="geometry" />
        </mxCell>
        <mxCell id="OnQnRQUOSkfBYbq7Mj6k-49" value="" style="endArrow=none;html=1;rounded=0;entryX=0;entryY=0.5;entryDx=0;entryDy=0;" edge="1" parent="1" target="OnQnRQUOSkfBYbq7Mj6k-45">
          <mxGeometry width="50" height="50" relative="1" as="geometry">
            <mxPoint x="440" y="825" as="sourcePoint" />
            <mxPoint x="795" y="985" as="targetPoint" />
          </mxGeometry>
        </mxCell>
        <mxCell id="OnQnRQUOSkfBYbq7Mj6k-50" value="Distribuidor" style="shape=umlActor;verticalLabelPosition=bottom;verticalAlign=top;html=1;" vertex="1" parent="1">
          <mxGeometry x="390" y="930" width="30" height="60" as="geometry" />
        </mxCell>
        <mxCell id="OnQnRQUOSkfBYbq7Mj6k-52" value="" style="endArrow=none;html=1;rounded=0;entryX=0;entryY=0;entryDx=0;entryDy=0;" edge="1" parent="1" target="OnQnRQUOSkfBYbq7Mj6k-51">
          <mxGeometry width="50" height="50" relative="1" as="geometry">
            <mxPoint x="440" y="610" as="sourcePoint" />
            <mxPoint x="774" y="947" as="targetPoint" />
          </mxGeometry>
        </mxCell>
        <mxCell id="OnQnRQUOSkfBYbq7Mj6k-53" value="" style="endArrow=none;html=1;rounded=0;entryX=0;entryY=1;entryDx=0;entryDy=0;" edge="1" parent="1" target="OnQnRQUOSkfBYbq7Mj6k-45">
          <mxGeometry width="50" height="50" relative="1" as="geometry">
            <mxPoint x="440" y="940" as="sourcePoint" />
            <mxPoint x="645" y="810" as="targetPoint" />
          </mxGeometry>
        </mxCell>
        <mxCell id="OnQnRQUOSkfBYbq7Mj6k-54" value="" style="endArrow=none;html=1;rounded=0;entryX=0;entryY=0.5;entryDx=0;entryDy=0;" edge="1" parent="1" target="OnQnRQUOSkfBYbq7Mj6k-51">
          <mxGeometry width="50" height="50" relative="1" as="geometry">
            <mxPoint x="440" y="950" as="sourcePoint" />
            <mxPoint x="635" y="850" as="targetPoint" />
          </mxGeometry>
        </mxCell>
        <mxCell id="OnQnRQUOSkfBYbq7Mj6k-57" value="" style="endArrow=none;html=1;rounded=0;entryX=0;entryY=0.5;entryDx=0;entryDy=0;" edge="1" parent="1" target="OnQnRQUOSkfBYbq7Mj6k-55">
          <mxGeometry width="50" height="50" relative="1" as="geometry">
            <mxPoint x="440" y="960" as="sourcePoint" />
            <mxPoint x="735" y="850" as="targetPoint" />
          </mxGeometry>
        </mxCell>
        <mxCell id="OnQnRQUOSkfBYbq7Mj6k-58" value="" style="endArrow=none;html=1;rounded=0;entryX=0;entryY=0.5;entryDx=0;entryDy=0;" edge="1" parent="1" target="OnQnRQUOSkfBYbq7Mj6k-56">
          <mxGeometry width="50" height="50" relative="1" as="geometry">
            <mxPoint x="440" y="975" as="sourcePoint" />
            <mxPoint x="615" y="890" as="targetPoint" />
          </mxGeometry>
        </mxCell>
        <mxCell id="OnQnRQUOSkfBYbq7Mj6k-59" value="" style="endArrow=none;html=1;rounded=0;exitX=1;exitY=0.5;exitDx=0;exitDy=0;" edge="1" parent="1" source="OnQnRQUOSkfBYbq7Mj6k-7" target="OnQnRQUOSkfBYbq7Mj6k-8">
          <mxGeometry width="50" height="50" relative="1" as="geometry">
            <mxPoint x="850" y="345" as="sourcePoint" />
            <mxPoint x="1150" y="345" as="targetPoint" />
          </mxGeometry>
        </mxCell>
        <mxCell id="OnQnRQUOSkfBYbq7Mj6k-8" value="DICODEF" style="shape=umlActor;verticalLabelPosition=bottom;verticalAlign=top;html=1;" vertex="1" parent="1">
          <mxGeometry x="960" y="310" width="30" height="60" as="geometry" />
        </mxCell>
      </root>
    </mxGraphModel>
  </diagram>
</mxfile>
